<mxfile host="app.diagrams.net" modified="2025-10-03T00:00:00.000Z" agent="Manual" version="22.0.0">
  <diagram name="商品ステータスフロー" id="product-status-flow">
    <mxGraphModel dx="1422" dy="794" grid="1" gridSize="10" guides="1" tooltips="1" connect="1" arrows="1" fold="1" page="1" pageScale="1" pageWidth="1169" pageHeight="827" math="0" shadow="0">
      <root>
        <mxCell id="0" />
        <mxCell id="1" parent="0" />

        <!-- タイトル -->
        <mxCell id="title" value="商品ステータスフロー（実装版）" style="text;html=1;strokeColor=none;fillColor=none;align=center;verticalAlign=middle;whiteSpace=wrap;rounded=0;fontSize=24;fontStyle=1" vertex="1" parent="1">
          <mxGeometry x="320" y="30" width="530" height="40" as="geometry" />
        </mxCell>

        <!-- ステータスノード -->
        <mxCell id="status-inbound" value="inbound&#xa;（入荷）" style="rounded=1;whiteSpace=wrap;html=1;fillColor=#dae8fc;strokeColor=#6c8ebf;fontSize=14;fontStyle=1" vertex="1" parent="1">
          <mxGeometry x="485" y="100" width="200" height="60" as="geometry" />
        </mxCell>

        <mxCell id="status-inspection" value="inspection&#xa;（検品中）" style="rounded=1;whiteSpace=wrap;html=1;fillColor=#fff2cc;strokeColor=#d6b656;fontSize=14;fontStyle=1" vertex="1" parent="1">
          <mxGeometry x="485" y="200" width="200" height="60" as="geometry" />
        </mxCell>

        <mxCell id="status-storage" value="storage&#xa;（保管中）" style="rounded=1;whiteSpace=wrap;html=1;fillColor=#d5e8d4;strokeColor=#82b366;fontSize=14;fontStyle=1" vertex="1" parent="1">
          <mxGeometry x="485" y="300" width="200" height="60" as="geometry" />
        </mxCell>

        <mxCell id="status-listing" value="listing&#xa;（出品中）" style="rounded=1;whiteSpace=wrap;html=1;fillColor=#e1d5e7;strokeColor=#9673a6;fontSize=14;fontStyle=1" vertex="1" parent="1">
          <mxGeometry x="485" y="400" width="200" height="60" as="geometry" />
        </mxCell>

        <mxCell id="status-ordered" value="ordered&#xa;（受注済み）" style="rounded=1;whiteSpace=wrap;html=1;fillColor=#f8cecc;strokeColor=#b85450;fontSize=14;fontStyle=1" vertex="1" parent="1">
          <mxGeometry x="485" y="500" width="200" height="60" as="geometry" />
        </mxCell>

        <mxCell id="status-picking" value="picking&#xa;（ピッキング中）" style="rounded=1;whiteSpace=wrap;html=1;fillColor=#ffe6cc;strokeColor=#d79b00;fontSize=14;fontStyle=1" vertex="1" parent="1">
          <mxGeometry x="485" y="600" width="200" height="60" as="geometry" />
        </mxCell>

        <!-- 右側の追加ステータス -->
        <mxCell id="status-packed" value="packed&#xa;（梱包完了）" style="rounded=1;whiteSpace=wrap;html=1;fillColor=#ffe6cc;strokeColor=#d79b00;fontSize=14;fontStyle=1" vertex="1" parent="1">
          <mxGeometry x="785" y="100" width="200" height="60" as="geometry" />
        </mxCell>

        <mxCell id="status-label" value="label_attached&#xa;（ラベル貼付済み）" style="rounded=1;whiteSpace=wrap;html=1;fillColor=#ffe6cc;strokeColor=#d79b00;fontSize=14;fontStyle=1" vertex="1" parent="1">
          <mxGeometry x="785" y="200" width="200" height="60" as="geometry" />
        </mxCell>

        <mxCell id="status-shipment-req" value="shipment_requested&#xa;（出荷リクエスト）" style="rounded=1;whiteSpace=wrap;html=1;fillColor=#ffe6cc;strokeColor=#d79b00;fontSize=14;fontStyle=1" vertex="1" parent="1">
          <mxGeometry x="785" y="300" width="200" height="60" as="geometry" />
        </mxCell>

        <mxCell id="status-shipped" value="shipped&#xa;（発送済み）" style="rounded=1;whiteSpace=wrap;html=1;fillColor=#b1ddf0;strokeColor=#10739e;fontSize=14;fontStyle=1" vertex="1" parent="1">
          <mxGeometry x="785" y="400" width="200" height="60" as="geometry" />
        </mxCell>

        <mxCell id="status-delivered" value="delivered&#xa;（配送完了）" style="rounded=1;whiteSpace=wrap;html=1;fillColor=#b0e3e6;strokeColor=#0e8088;fontSize=14;fontStyle=1" vertex="1" parent="1">
          <mxGeometry x="785" y="500" width="200" height="60" as="geometry" />
        </mxCell>

        <mxCell id="status-returned" value="returned&#xa;（返品）" style="rounded=1;whiteSpace=wrap;html=1;fillColor=#f8cecc;strokeColor=#b85450;fontSize=14;fontStyle=1" vertex="1" parent="1">
          <mxGeometry x="185" y="400" width="200" height="60" as="geometry" />
        </mxCell>

        <!-- 矢印（メインフロー） -->
        <mxCell id="arrow1" style="edgeStyle=orthogonalEdgeStyle;rounded=0;orthogonalLoop=1;jettySize=auto;html=1;exitX=0.5;exitY=1;exitDx=0;exitDy=0;entryX=0.5;entryY=0;entryDx=0;entryDy=0;strokeWidth=3;fillColor=#dae8fc;strokeColor=#6c8ebf;" edge="1" parent="1" source="status-inbound" target="status-inspection">
          <mxGeometry relative="1" as="geometry" />
        </mxCell>

        <mxCell id="arrow2" style="edgeStyle=orthogonalEdgeStyle;rounded=0;orthogonalLoop=1;jettySize=auto;html=1;exitX=0.5;exitY=1;exitDx=0;exitDy=0;entryX=0.5;entryY=0;entryDx=0;entryDy=0;strokeWidth=3;fillColor=#fff2cc;strokeColor=#d6b656;" edge="1" parent="1" source="status-inspection" target="status-storage">
          <mxGeometry relative="1" as="geometry" />
        </mxCell>

        <mxCell id="arrow3" style="edgeStyle=orthogonalEdgeStyle;rounded=0;orthogonalLoop=1;jettySize=auto;html=1;exitX=0.5;exitY=1;exitDx=0;exitDy=0;entryX=0.5;entryY=0;entryDx=0;entryDy=0;strokeWidth=3;fillColor=#d5e8d4;strokeColor=#82b366;" edge="1" parent="1" source="status-storage" target="status-listing">
          <mxGeometry relative="1" as="geometry" />
        </mxCell>

        <mxCell id="arrow4" style="edgeStyle=orthogonalEdgeStyle;rounded=0;orthogonalLoop=1;jettySize=auto;html=1;exitX=0.5;exitY=1;exitDx=0;exitDy=0;entryX=0.5;entryY=0;entryDx=0;entryDy=0;strokeWidth=3;fillColor=#e1d5e7;strokeColor=#9673a6;" edge="1" parent="1" source="status-listing" target="status-ordered">
          <mxGeometry relative="1" as="geometry" />
        </mxCell>

        <mxCell id="arrow5" style="edgeStyle=orthogonalEdgeStyle;rounded=0;orthogonalLoop=1;jettySize=auto;html=1;exitX=0.5;exitY=1;exitDx=0;exitDy=0;entryX=0.5;entryY=0;entryDx=0;entryDy=0;strokeWidth=3;fillColor=#f8cecc;strokeColor=#b85450;" edge="1" parent="1" source="status-ordered" target="status-picking">
          <mxGeometry relative="1" as="geometry" />
        </mxCell>

        <mxCell id="arrow6" style="edgeStyle=orthogonalEdgeStyle;rounded=0;orthogonalLoop=1;jettySize=auto;html=1;exitX=1;exitY=0.5;exitDx=0;exitDy=0;entryX=0;entryY=0.5;entryDx=0;entryDy=0;strokeWidth=3;fillColor=#ffe6cc;strokeColor=#d79b00;" edge="1" parent="1" source="status-picking" target="status-packed">
          <mxGeometry relative="1" as="geometry">
            <Array as="points">
              <mxPoint x="735" y="630" />
              <mxPoint x="735" y="130" />
            </Array>
          </mxGeometry>
        </mxCell>

        <mxCell id="arrow7" style="edgeStyle=orthogonalEdgeStyle;rounded=0;orthogonalLoop=1;jettySize=auto;html=1;exitX=0.5;exitY=1;exitDx=0;exitDy=0;entryX=0.5;entryY=0;entryDx=0;entryDy=0;strokeWidth=3;fillColor=#ffe6cc;strokeColor=#d79b00;" edge="1" parent="1" source="status-packed" target="status-label">
          <mxGeometry relative="1" as="geometry" />
        </mxCell>

        <mxCell id="arrow8" style="edgeStyle=orthogonalEdgeStyle;rounded=0;orthogonalLoop=1;jettySize=auto;html=1;exitX=0.5;exitY=1;exitDx=0;exitDy=0;entryX=0.5;entryY=0;entryDx=0;entryDy=0;strokeWidth=3;fillColor=#ffe6cc;strokeColor=#d79b00;" edge="1" parent="1" source="status-label" target="status-shipment-req">
          <mxGeometry relative="1" as="geometry" />
        </mxCell>

        <mxCell id="arrow9" style="edgeStyle=orthogonalEdgeStyle;rounded=0;orthogonalLoop=1;jettySize=auto;html=1;exitX=0.5;exitY=1;exitDx=0;exitDy=0;entryX=0.5;entryY=0;entryDx=0;entryDy=0;strokeWidth=3;fillColor=#b1ddf0;strokeColor=#10739e;" edge="1" parent="1" source="status-shipment-req" target="status-shipped">
          <mxGeometry relative="1" as="geometry" />
        </mxCell>

        <mxCell id="arrow10" style="edgeStyle=orthogonalEdgeStyle;rounded=0;orthogonalLoop=1;jettySize=auto;html=1;exitX=0.5;exitY=1;exitDx=0;exitDy=0;entryX=0.5;entryY=0;entryDx=0;entryDy=0;strokeWidth=3;fillColor=#b0e3e6;strokeColor=#0e8088;" edge="1" parent="1" source="status-shipped" target="status-delivered">
          <mxGeometry relative="1" as="geometry" />
        </mxCell>

        <!-- 返品フロー -->
        <mxCell id="arrow-return1" style="edgeStyle=orthogonalEdgeStyle;rounded=0;orthogonalLoop=1;jettySize=auto;html=1;exitX=0;exitY=0.5;exitDx=0;exitDy=0;entryX=1;entryY=0.5;entryDx=0;entryDy=0;strokeWidth=2;fillColor=#f8cecc;strokeColor=#b85450;dashed=1;" edge="1" parent="1" source="status-delivered" target="status-returned">
          <mxGeometry relative="1" as="geometry">
            <Array as="points">
              <mxPoint x="735" y="530" />
              <mxPoint x="735" y="700" />
              <mxPoint x="135" y="700" />
              <mxPoint x="135" y="430" />
            </Array>
          </mxGeometry>
        </mxCell>

        <mxCell id="arrow-return2" style="edgeStyle=orthogonalEdgeStyle;rounded=0;orthogonalLoop=1;jettySize=auto;html=1;exitX=0.5;exitY=0;exitDx=0;exitDy=0;entryX=0;entryY=0.5;entryDx=0;entryDy=0;strokeWidth=2;fillColor=#f8cecc;strokeColor=#b85450;dashed=1;" edge="1" parent="1" source="status-returned" target="status-inspection">
          <mxGeometry relative="1" as="geometry" />
        </mxCell>

        <!-- ラベル -->
        <mxCell id="label1" value="セラー納品" style="text;html=1;strokeColor=none;fillColor=none;align=center;verticalAlign=middle;whiteSpace=wrap;rounded=0;fontSize=12;" vertex="1" parent="1">
          <mxGeometry x="720" y="115" width="100" height="30" as="geometry" />
        </mxCell>

        <mxCell id="label2" value="スタッフ作業" style="text;html=1;strokeColor=none;fillColor=none;align=center;verticalAlign=middle;whiteSpace=wrap;rounded=0;fontSize=12;" vertex="1" parent="1">
          <mxGeometry x="395" y="215" width="100" height="30" as="geometry" />
        </mxCell>

        <mxCell id="label3" value="出品判断" style="text;html=1;strokeColor=none;fillColor=none;align=center;verticalAlign=middle;whiteSpace=wrap;rounded=0;fontSize=12;" vertex="1" parent="1">
          <mxGeometry x="720" y="315" width="100" height="30" as="geometry" />
        </mxCell>

        <mxCell id="label4" value="販売成立" style="text;html=1;strokeColor=none;fillColor=none;align=center;verticalAlign=middle;whiteSpace=wrap;rounded=0;fontSize=12;" vertex="1" parent="1">
          <mxGeometry x="720" y="415" width="100" height="30" as="geometry" />
        </mxCell>

        <mxCell id="label5" value="出荷プロセス" style="text;html=1;strokeColor=none;fillColor=none;align=center;verticalAlign=middle;whiteSpace=wrap;rounded=0;fontSize=12;" vertex="1" parent="1">
          <mxGeometry x="1000" y="250" width="100" height="30" as="geometry" />
        </mxCell>

        <mxCell id="label6" value="返品・再検品" style="text;html=1;strokeColor=none;fillColor=none;align=center;verticalAlign=middle;whiteSpace=wrap;rounded=0;fontSize=12;fontColor=#b85450;" vertex="1" parent="1">
          <mxGeometry x="45" y="340" width="100" height="30" as="geometry" />
        </mxCell>

        <!-- 注釈 -->
        <mxCell id="note" value="注: 実装では英語のステータス名を使用&#xa;UI上では日本語表示に変換される" style="text;html=1;strokeColor=#666666;fillColor=#f5f5f5;align=left;verticalAlign=top;whiteSpace=wrap;rounded=1;fontSize=11;spacingLeft=10;spacingTop=10;" vertex="1" parent="1">
          <mxGeometry x="45" y="100" width="280" height="60" as="geometry" />
        </mxCell>

      </root>
    </mxGraphModel>
  </diagram>
</mxfile>
